<mxfile host="app.diagrams.net" modified="2022-07-21T22:04:36.727Z" agent="5.0 (Windows NT 10.0; Win64; x64) AppleWebKit/537.36 (KHTML, like Gecko) Chrome/103.0.0.0 Safari/537.36" etag="T8TxUkR87x2dwHuIXAJS" version="20.1.3" type="github">
  <diagram id="xUPjVIPl79DabASF64OH" name="Page-1">
    <mxGraphModel dx="2739" dy="603" grid="1" gridSize="10" guides="1" tooltips="1" connect="1" arrows="1" fold="1" page="1" pageScale="1" pageWidth="827" pageHeight="1169" math="0" shadow="0">
      <root>
        <mxCell id="0" />
        <mxCell id="1" parent="0" />
        <mxCell id="5PCdbeZCV5nFtpC1rvrO-5" value="" style="rounded=0;whiteSpace=wrap;html=1;" parent="1" vertex="1">
          <mxGeometry x="-475" y="330" width="580" height="330" as="geometry" />
        </mxCell>
        <mxCell id="5PCdbeZCV5nFtpC1rvrO-17" style="edgeStyle=orthogonalEdgeStyle;rounded=0;orthogonalLoop=1;jettySize=auto;html=1;entryX=0;entryY=0.5;entryDx=0;entryDy=0;" parent="1" source="5PCdbeZCV5nFtpC1rvrO-2" target="5PCdbeZCV5nFtpC1rvrO-16" edge="1">
          <mxGeometry relative="1" as="geometry" />
        </mxCell>
        <mxCell id="5PCdbeZCV5nFtpC1rvrO-2" value="users&lt;br&gt;&lt;br&gt;&lt;br&gt;-post&lt;br&gt;-get&lt;br&gt;&lt;br&gt;&lt;br&gt;authentications&lt;br&gt;&lt;br&gt;JWT" style="rounded=0;whiteSpace=wrap;html=1;" parent="1" vertex="1">
          <mxGeometry x="960" y="690" width="244.74" height="310" as="geometry" />
        </mxCell>
        <mxCell id="B0Ub9luGkZg1-JjCzHyT-10" style="edgeStyle=orthogonalEdgeStyle;rounded=0;orthogonalLoop=1;jettySize=auto;html=1;entryX=0;entryY=0.5;entryDx=0;entryDy=0;" edge="1" parent="1" source="5PCdbeZCV5nFtpC1rvrO-3" target="B0Ub9luGkZg1-JjCzHyT-1">
          <mxGeometry relative="1" as="geometry" />
        </mxCell>
        <mxCell id="5PCdbeZCV5nFtpC1rvrO-3" value="info_general&lt;br&gt;&lt;br&gt;&lt;br&gt;-post&lt;br&gt;-get&lt;br&gt;-update&lt;br&gt;-delete" style="rounded=0;whiteSpace=wrap;html=1;" parent="1" vertex="1">
          <mxGeometry x="-280" y="395" width="190" height="190" as="geometry" />
        </mxCell>
        <mxCell id="5PCdbeZCV5nFtpC1rvrO-10" value="" style="rounded=0;whiteSpace=wrap;html=1;" parent="1" vertex="1">
          <mxGeometry x="-475" y="705" width="580" height="280" as="geometry" />
        </mxCell>
        <mxCell id="B0Ub9luGkZg1-JjCzHyT-8" style="edgeStyle=orthogonalEdgeStyle;rounded=0;orthogonalLoop=1;jettySize=auto;html=1;entryX=0;entryY=0.5;entryDx=0;entryDy=0;" edge="1" parent="1" source="5PCdbeZCV5nFtpC1rvrO-13" target="B0Ub9luGkZg1-JjCzHyT-1">
          <mxGeometry relative="1" as="geometry" />
        </mxCell>
        <mxCell id="5PCdbeZCV5nFtpC1rvrO-13" value="blocks&lt;br&gt;&lt;br&gt;&lt;br&gt;-post&lt;br&gt;-get&lt;br&gt;-update&lt;br&gt;" style="rounded=0;whiteSpace=wrap;html=1;" parent="1" vertex="1">
          <mxGeometry x="-280" y="750" width="190" height="190" as="geometry" />
        </mxCell>
        <mxCell id="5PCdbeZCV5nFtpC1rvrO-15" style="edgeStyle=orthogonalEdgeStyle;rounded=0;orthogonalLoop=1;jettySize=auto;html=1;" parent="1" source="5PCdbeZCV5nFtpC1rvrO-14" target="5PCdbeZCV5nFtpC1rvrO-13" edge="1">
          <mxGeometry relative="1" as="geometry" />
        </mxCell>
        <mxCell id="5PCdbeZCV5nFtpC1rvrO-14" value="room&lt;br&gt;&lt;br&gt;&lt;br&gt;-post&lt;br&gt;-get&lt;br&gt;-update" style="rounded=0;whiteSpace=wrap;html=1;" parent="1" vertex="1">
          <mxGeometry x="-780" y="750" width="190" height="190" as="geometry" />
        </mxCell>
        <mxCell id="5PCdbeZCV5nFtpC1rvrO-16" value="external services&amp;nbsp;&lt;br&gt;&lt;br&gt;&lt;br&gt;mail&amp;nbsp;&lt;br&gt;-send email" style="rounded=0;whiteSpace=wrap;html=1;" parent="1" vertex="1">
          <mxGeometry x="1340" y="445" width="350" height="305" as="geometry" />
        </mxCell>
        <mxCell id="5PCdbeZCV5nFtpC1rvrO-20" style="edgeStyle=orthogonalEdgeStyle;rounded=0;orthogonalLoop=1;jettySize=auto;html=1;entryX=0;entryY=0.5;entryDx=0;entryDy=0;" parent="1" source="5PCdbeZCV5nFtpC1rvrO-19" target="5PCdbeZCV5nFtpC1rvrO-14" edge="1">
          <mxGeometry relative="1" as="geometry" />
        </mxCell>
        <mxCell id="5PCdbeZCV5nFtpC1rvrO-19" value="guests&lt;br&gt;&lt;br&gt;&lt;br&gt;-post&lt;br&gt;-get" style="rounded=0;whiteSpace=wrap;html=1;" parent="1" vertex="1">
          <mxGeometry x="-1024.74" y="460" width="244.74" height="190" as="geometry" />
        </mxCell>
        <mxCell id="B0Ub9luGkZg1-JjCzHyT-7" style="edgeStyle=orthogonalEdgeStyle;rounded=0;orthogonalLoop=1;jettySize=auto;html=1;entryX=0;entryY=0.5;entryDx=0;entryDy=0;" edge="1" parent="1" source="B0Ub9luGkZg1-JjCzHyT-1" target="5PCdbeZCV5nFtpC1rvrO-2">
          <mxGeometry relative="1" as="geometry" />
        </mxCell>
        <mxCell id="B0Ub9luGkZg1-JjCzHyT-1" value="data_hotel&lt;br&gt;&lt;br&gt;step_one&lt;br&gt;step_two&lt;br&gt;step_three" style="rounded=0;whiteSpace=wrap;html=1;" vertex="1" parent="1">
          <mxGeometry x="570" y="690" width="244.74" height="310" as="geometry" />
        </mxCell>
        <mxCell id="B0Ub9luGkZg1-JjCzHyT-2" value="" style="rounded=0;whiteSpace=wrap;html=1;" vertex="1" parent="1">
          <mxGeometry x="-475" y="1050" width="580" height="280" as="geometry" />
        </mxCell>
        <mxCell id="B0Ub9luGkZg1-JjCzHyT-9" style="edgeStyle=orthogonalEdgeStyle;rounded=0;orthogonalLoop=1;jettySize=auto;html=1;entryX=0;entryY=0.5;entryDx=0;entryDy=0;" edge="1" parent="1" source="B0Ub9luGkZg1-JjCzHyT-3" target="B0Ub9luGkZg1-JjCzHyT-1">
          <mxGeometry relative="1" as="geometry">
            <Array as="points">
              <mxPoint x="240" y="1175" />
              <mxPoint x="240" y="845" />
            </Array>
          </mxGeometry>
        </mxCell>
        <mxCell id="B0Ub9luGkZg1-JjCzHyT-3" value="stores&lt;br&gt;&lt;br&gt;&lt;br&gt;&lt;br&gt;-post&lt;br&gt;-get&lt;br&gt;-update" style="rounded=0;whiteSpace=wrap;html=1;" vertex="1" parent="1">
          <mxGeometry x="-290" y="1080" width="190" height="190" as="geometry" />
        </mxCell>
      </root>
    </mxGraphModel>
  </diagram>
</mxfile>
